<svg width="32" height="32" viewBox="0 0 32 32" fill="none" xmlns="http://www.w3.org/2000/svg">
<rect width="32" height="32" rx="7" fill="#0A0B0D"/>
<path d="M20 7.5C19.7239 7.5 19.5 7.72386 19.5 8V20.13C18.95 19.7407 18.2875 19.5 17.55 19.5C15.5875 19.5 14 20.8431 14 22.5C14 24.1569 15.5875 25.5 17.55 25.5C19.5125 25.5 21.1 24.1569 21.1 22.5V11.8754C21.9382 12.4272 22.9525 12.75 24.05 12.75C24.3261 12.75 24.55 12.5261 24.55 12.25C24.55 11.9739 24.3261 11.75 24.05 11.75C22.6483 11.75 21.4044 11.1249 20.6695 10.1694C20.5665 10.036 20.5 9.87368 20.5 9.70588V8C20.5 7.72386 20.2761 7.5 20 7.5Z" fill="#32F08C"/>
<ellipse cx="13" cy="22.5" rx="3.2" ry="2.5" fill="#32F08C"/>
</svg>
