<svg width="32" height="32" viewBox="0 0 32 32" fill="none" xmlns="http://www.w3.org/2000/svg">
<rect width="32" height="32" rx="7" fill="#0A0B0D"/>
<!-- Y 与音符融合：上方分叉为 Y 两臂，下方竖线化作符干，底部连接音符头 -->
<path d="M8.5 8.5C8.22386 8.5 8 8.72386 8 9C8 9.27614 8.22386 9.5 8.5 9.5C9.17157 9.5 9.7 9.90539 10.0607 10.4393L15.2929 16.7071C15.4804 16.8946 15.7348 17 16 17C16.2652 17 16.5196 16.8946 16.7071 16.7071L21.9393 10.4393C22.3 9.90539 22.8284 9.5 23.5 9.5C23.7761 9.5 24 9.27614 24 9C24 8.72386 23.7761 8.5 23.5 8.5C22.1716 8.5 21.1 9.23821 20.4393 10.3536L16 15.2929L11.5607 10.3536C10.9 9.23821 9.82843 8.5 8.5 8.5Z" fill="#32F08C"/>
<path d="M15.5 15.5C15.5 15.2239 15.7239 15 16 15C16.2761 15 16.5 15.2239 16.5 15.5V22.5C16.5 22.7761 16.2761 23 16 23C15.7239 23 15.5 22.7761 15.5 22.5V15.5Z" fill="#32F08C"/>
<ellipse cx="13" cy="23" rx="3.2" ry="2.5" fill="#32F08C"/>
</svg>
